# xmcd
#
# Track frame offsets:
#	150
#	17234
#	33753
#	48689
#	64343
#	79842
#	95141
#	110656
#	127829
#	141464
#	156488
#	170517
#	187000
#	201361
#	217939
#	235824
#	252664
#	270486
#
# Disc length: 3850 seconds
#
# Revision: 1
# Processed by: cddbd v1.5.1PL2 Copyright (c) Steve Scherf et al.
# Submitted via: audiograbber 1.83.01
#
DISCID=130f0812
DTITLE=RADIJSKI FESIVAL 2004 - CD 2
DYEAR=2004
DGENRE=Pop
TTITLE0=DADO GLISIC - Dobar i lud
TTITLE1=MINA LAZAREVIC - Da li ona zna
TTITLE2=DENIS I OBULE - Rodjen sam
TTITLE3=MARINELA - Zatvori oci
TTITLE4=DUSAN PETROVIC - Tudje prezime
TTITLE5=DJOGANI - Miris nedelje
TTITLE6=TROPIKO - Sedativ
TTITLE7=RUZICA CAVIC - Vucica
TTITLE8=OLIVER STOJILJKOVIC - Ti nisi tu
TTITLE9=IVANA COSIC - Kisa
TTITLE10=NO NAME - Zakuni se
TTITLE11=TRIO PASSAGE - Luda sam
TTITLE12=ALEKSANDRA RADOSAVLJEVIC - Reci sad
TTITLE13=ZELIMIR KULISIC - Gubi se
TTITLE14=KNEZ - Mala
TTITLE15=ZIKI - Prastam ti dug
TTITLE16=MAJA ODZAKLIJEVSKA - Anatema
TTITLE17=NEGATIV - Carobni napitak
EXTD=
EXTT0=
EXTT1=
EXTT2=
EXTT3=
EXTT4=
EXTT5=
EXTT6=
EXTT7=
EXTT8=
EXTT9=
EXTT10=
EXTT11=
EXTT12=
EXTT13=
EXTT14=
EXTT15=
EXTT16=
EXTT17=
PLAYORDER=
